<svg width="200" height="200" fill="none" xmlns="http://www.w3.org/2000/svg"><path fill="#2C6269" d="M100 100H0V0h100z"/><path fill-rule="evenodd" clip-rule="evenodd" d="M100 200c55.228 0 100-44.772 100-100S155.228 0 100 0 0 44.772 0 100s44.772 100 100 100zm0-67c18.225 0 33-14.775 33-33s-14.775-33-33-33-33 14.775-33 33 14.775 33 33 33z" fill="#F67E7E"/><path fill-rule="evenodd" clip-rule="evenodd" d="M100 0H0v4h100V0zm0 8H0v4h100V8zM0 16h100v4H0v-4zm100 8H0v4h100v-4zM0 32h100v4H0v-4zm100 8H0v4h100v-4z" fill="#79C8C7"/></svg>