<svg width="72" height="72" fill="none" xmlns="http://www.w3.org/2000/svg"><circle cx="44" cy="44" r="28" fill="#2C6269"/><path fill-rule="evenodd" clip-rule="evenodd" d="M14.496 0h14c5.66 0 10.267 4.606 10.267 10.267v4.666a3.737 3.737 0 013.733 3.734 3.737 3.737 0 01-3.733 3.733h-.213a11.184 11.184 0 01-5.387 8.701v1.566h2.949a4.522 4.522 0 014.515 4.726l.12.008c4.217.561 7.349 4.142 7.35 8.332V56h-1.868V45.733a6.553 6.553 0 00-5.668-6.475l-.404-.026a4.562 4.562 0 01-.28.485l-4.848 7.234V56h-1.866V42.956a9.388 9.388 0 01-5.6 1.844 9.39 9.39 0 01-5.6-1.843V56h-1.867v-9.05l-4.845-7.23a4.576 4.576 0 01-.282-.487l-.466.03c-3.171.426-5.607 3.21-5.607 6.47V56H7.029V45.733c0-4.19 3.133-7.77 7.288-8.326l.181-.012a4.52 4.52 0 014.514-4.728h2.95V31.13a10.993 10.993 0 01-5.372-8.54l-.014-.191h-.213a3.737 3.737 0 01-3.734-3.733 3.737 3.737 0 013.734-3.734h.001l-.001-4.364a6.541 6.541 0 01-3.734-5.902c0-.516.418-.934.934-.934h.5a3.705 3.705 0 01-.5-1.866V.933c0-.515.418-.933.933-.933zm18.667 35.672v-1.139h2.949c1.462 0 2.65 1.19 2.65 2.66a2.629 2.629 0 01-.439 1.488l-3.294 4.916V37.54a.932.932 0 00-.933-.934h-.159a.934.934 0 01-.774-.933zm-3.65-3.172c.615-.12 1.21-.287 1.783-.5v3.664a2.798 2.798 0 001.867 2.661v2.123a7.525 7.525 0 01-5.6 2.485 7.53 7.53 0 01-5.6-2.484v-2.123a2.797 2.797 0 001.866-2.654v-3.658a10.971 10.971 0 005.684.486zm-9.417 5.039v6.057l-3.292-4.913a2.638 2.638 0 01-.441-1.5 2.653 2.653 0 012.65-2.65h2.95v1.146a.934.934 0 01-.775.926h-.159a.933.933 0 00-.933.934zm15.033-26.34h1.767l.001 2.862c-.713-.645-1.496-1.605-1.768-2.861zm-1.9 0c.415 2.842 2.642 4.555 3.669 5.205v3.123l-.196 2.544a9.328 9.328 0 01-7.53 8.594c-4.968.882-9.732-2.444-10.615-7.415a9.088 9.088 0 01-.106-.81l-.222-2.84v-3.197c1.029-.651 3.253-2.364 3.667-5.203H33.23zM16.364 16.8h.002v2.872l.067.861h-.07a1.869 1.869 0 01-1.866-1.866c0-1.03.837-1.867 1.867-1.867zm3.634-5.6c-.272 1.256-1.054 2.215-1.768 2.86v-2.927c.305.044.617.067.934.067h.834zm18.766 8.4v-2.8c1.03 0 1.866.837 1.866 1.867s-.837 1.866-1.866 1.866h-.072l.072-.933zM14.59 5.6a4.675 4.675 0 004.573 3.733h17.68c-.465-4.194-4.03-7.466-8.347-7.466H15.429c0 1.03.838 1.866 1.867 1.866a.934.934 0 010 1.867H14.59zm9.24 12.133a1.867 1.867 0 11-3.734 0 1.867 1.867 0 013.733 0zm9.333 1.867a1.867 1.867 0 100-3.733 1.867 1.867 0 000 3.733zm-6.088.933l1.354-3.386-1.733-.693-1.867 4.666a.934.934 0 00.867 1.28h2.8v-1.867h-1.421zm-1.22 3.734a5.414 5.414 0 003.848-1.594l1.32 1.32a7.27 7.27 0 01-5.168 2.14h-.159v-1.866h.159zM17.296 47.6a.933.933 0 111.867 0v5.6a.933.933 0 11-1.867 0v-5.6zm18.667 0a.932.932 0 111.866 0v5.6a.932.932 0 11-1.866 0v-5.6z" fill="#79C8C7"/></svg>